<mxfile host="Electron" agent="Mozilla/5.0 (Windows NT 10.0; Win64; x64) AppleWebKit/537.36 (KHTML, like Gecko) draw.io/26.0.9 Chrome/128.0.6613.186 Electron/32.2.5 Safari/537.36" version="26.0.9">
  <diagram name="Page-1" id="bH1TU-LFZN7pxWUymLjU">
    <mxGraphModel dx="2899" dy="1263" grid="1" gridSize="10" guides="1" tooltips="1" connect="1" arrows="1" fold="1" page="1" pageScale="1" pageWidth="850" pageHeight="1100" math="0" shadow="0">
      <root>
        <mxCell id="0" />
        <mxCell id="1" parent="0" />
        <mxCell id="SDv6OV_HzmU0nE14EEoZ-1" value="&lt;font style=&quot;font-size: 24px;&quot;&gt;SƠ ĐỒ CÔNG TY&lt;/font&gt;" style="rounded=1;whiteSpace=wrap;html=1;strokeWidth=4;fillColor=#b1ddf0;strokeColor=#10739e;fontStyle=1;fontSize=15;" vertex="1" parent="1">
          <mxGeometry x="315" y="130" width="250" height="60" as="geometry" />
        </mxCell>
        <mxCell id="SDv6OV_HzmU0nE14EEoZ-2" value="&lt;font&gt;HDTV&lt;/font&gt;" style="rounded=1;whiteSpace=wrap;html=1;fillColor=#ffff88;strokeColor=#36393d;fontStyle=1;strokeWidth=4;fontSize=15;" vertex="1" parent="1">
          <mxGeometry x="377.5" y="230" width="120" height="50" as="geometry" />
        </mxCell>
        <mxCell id="SDv6OV_HzmU0nE14EEoZ-3" value="GIÁM ĐỐC" style="rounded=1;whiteSpace=wrap;html=1;fillColor=#b1ddf0;strokeColor=#10739e;strokeWidth=4;fontStyle=1;fontSize=15;" vertex="1" parent="1">
          <mxGeometry x="370" y="330" width="135" height="50" as="geometry" />
        </mxCell>
        <mxCell id="SDv6OV_HzmU0nE14EEoZ-4" value="&lt;span&gt;PHÒNG&lt;br&gt;KT-TC&lt;/span&gt;" style="rounded=1;whiteSpace=wrap;html=1;fillColor=#ffff88;strokeColor=#36393d;fontStyle=1;strokeWidth=4;fontSize=15;" vertex="1" parent="1">
          <mxGeometry x="150" y="440" width="120" height="50" as="geometry" />
        </mxCell>
        <mxCell id="SDv6OV_HzmU0nE14EEoZ-5" value="&lt;span&gt;HỘI ĐỒNG&lt;br&gt;KCD&lt;/span&gt;" style="rounded=1;whiteSpace=wrap;html=1;fillColor=#ffff88;strokeColor=#36393d;fontStyle=1;strokeWidth=4;fontSize=15;" vertex="1" parent="1">
          <mxGeometry x="560" y="440" width="120" height="50" as="geometry" />
        </mxCell>
        <mxCell id="SDv6OV_HzmU0nE14EEoZ-6" value="PHÒNG&lt;br&gt;TPT" style="rounded=1;whiteSpace=wrap;html=1;fillColor=#b1ddf0;strokeColor=#10739e;strokeWidth=4;fontStyle=1;fontSize=15;" vertex="1" parent="1">
          <mxGeometry x="-240" y="570" width="130" height="50" as="geometry" />
        </mxCell>
        <mxCell id="SDv6OV_HzmU0nE14EEoZ-7" value="PHÒNG&lt;br&gt;CTF" style="rounded=1;whiteSpace=wrap;html=1;fillColor=#b1ddf0;strokeColor=#10739e;strokeWidth=4;fontStyle=1;fontSize=15;" vertex="1" parent="1">
          <mxGeometry x="-70" y="570" width="130" height="50" as="geometry" />
        </mxCell>
        <mxCell id="SDv6OV_HzmU0nE14EEoZ-8" value="PHÒNG&lt;br&gt;HKN" style="rounded=1;whiteSpace=wrap;html=1;fillColor=#b1ddf0;strokeColor=#10739e;strokeWidth=4;fontStyle=1;fontSize=15;" vertex="1" parent="1">
          <mxGeometry x="100" y="570" width="130" height="50" as="geometry" />
        </mxCell>
        <mxCell id="SDv6OV_HzmU0nE14EEoZ-9" value="PHÒNG&lt;br&gt;TOCC" style="rounded=1;whiteSpace=wrap;html=1;fillColor=#b1ddf0;strokeColor=#10739e;strokeWidth=4;fontStyle=1;fontSize=15;" vertex="1" parent="1">
          <mxGeometry x="265" y="570" width="130" height="50" as="geometry" />
        </mxCell>
        <mxCell id="SDv6OV_HzmU0nE14EEoZ-10" value="PHÒNG&lt;br&gt;KTO" style="rounded=1;whiteSpace=wrap;html=1;fillColor=#b1ddf0;strokeColor=#10739e;strokeWidth=4;fontStyle=1;fontSize=15;" vertex="1" parent="1">
          <mxGeometry x="490" y="570" width="130" height="50" as="geometry" />
        </mxCell>
        <mxCell id="SDv6OV_HzmU0nE14EEoZ-11" value="PHÒNG&lt;br&gt;DVKH" style="rounded=1;whiteSpace=wrap;html=1;fillColor=#b1ddf0;strokeColor=#10739e;strokeWidth=4;fontStyle=1;fontSize=15;" vertex="1" parent="1">
          <mxGeometry x="650" y="570" width="130" height="50" as="geometry" />
        </mxCell>
        <mxCell id="SDv6OV_HzmU0nE14EEoZ-12" value="PHÒNG&lt;br&gt;TPK" style="rounded=1;whiteSpace=wrap;html=1;fillColor=#b1ddf0;strokeColor=#10739e;strokeWidth=4;fontStyle=1;fontSize=15;" vertex="1" parent="1">
          <mxGeometry x="820" y="570" width="130" height="50" as="geometry" />
        </mxCell>
        <mxCell id="SDv6OV_HzmU0nE14EEoZ-13" value="PHÒNG&lt;br&gt;PTSP" style="rounded=1;whiteSpace=wrap;html=1;fillColor=#b1ddf0;strokeColor=#10739e;strokeWidth=4;fontStyle=1;fontSize=15;" vertex="1" parent="1">
          <mxGeometry x="990" y="570" width="130" height="50" as="geometry" />
        </mxCell>
        <mxCell id="SDv6OV_HzmU0nE14EEoZ-18" value="PHÒNG&lt;br&gt;XỬ LÝ VĂN BẢN" style="rounded=1;whiteSpace=wrap;html=1;fillColor=#ffff88;strokeColor=#36393d;strokeWidth=4;fontStyle=1;fontSize=15;" vertex="1" parent="1">
          <mxGeometry x="-247.5" y="770" width="130" height="50" as="geometry" />
        </mxCell>
        <mxCell id="SDv6OV_HzmU0nE14EEoZ-19" value="PHÒNG&lt;br&gt;KẾ TOÁN" style="rounded=1;whiteSpace=wrap;html=1;fillColor=#ffff88;strokeColor=#36393d;strokeWidth=4;fontStyle=1;fontSize=15;" vertex="1" parent="1">
          <mxGeometry x="-97.5" y="770" width="130" height="50" as="geometry" />
        </mxCell>
        <mxCell id="SDv6OV_HzmU0nE14EEoZ-20" value="PHÒNG&lt;br&gt;PHẦN MỀM" style="rounded=1;whiteSpace=wrap;html=1;fillColor=#ffff88;strokeColor=#36393d;strokeWidth=4;fontStyle=1;fontSize=15;" vertex="1" parent="1">
          <mxGeometry x="52.5" y="770" width="130" height="50" as="geometry" />
        </mxCell>
        <mxCell id="SDv6OV_HzmU0nE14EEoZ-21" value="PHÒNG&lt;br&gt;PTVB" style="rounded=1;whiteSpace=wrap;html=1;fillColor=#ffff88;strokeColor=#36393d;strokeWidth=4;fontStyle=1;fontSize=15;" vertex="1" parent="1">
          <mxGeometry x="210" y="770" width="130" height="50" as="geometry" />
        </mxCell>
        <mxCell id="SDv6OV_HzmU0nE14EEoZ-22" value="PHÒNG&lt;br&gt;KNCD" style="rounded=1;whiteSpace=wrap;html=1;fillColor=#ffff88;strokeColor=#36393d;strokeWidth=4;fontStyle=1;fontSize=15;" vertex="1" parent="1">
          <mxGeometry x="375" y="770" width="130" height="50" as="geometry" />
        </mxCell>
        <mxCell id="SDv6OV_HzmU0nE14EEoZ-23" value="PHÒNG&lt;br&gt;PLKN" style="rounded=1;whiteSpace=wrap;html=1;fillColor=#ffff88;strokeColor=#36393d;strokeWidth=4;fontStyle=1;fontSize=15;" vertex="1" parent="1">
          <mxGeometry x="532.5" y="770" width="130" height="50" as="geometry" />
        </mxCell>
        <mxCell id="SDv6OV_HzmU0nE14EEoZ-24" value="&lt;span&gt;PHÒNG&lt;br&gt;NHPL&lt;/span&gt;" style="rounded=1;whiteSpace=wrap;html=1;fillColor=#ffff88;strokeColor=#36393d;strokeWidth=4;fontStyle=1;fontSize=15;" vertex="1" parent="1">
          <mxGeometry x="692.5" y="770" width="130" height="50" as="geometry" />
        </mxCell>
        <mxCell id="SDv6OV_HzmU0nE14EEoZ-25" value="&lt;span&gt;PHÒNG&lt;br&gt;DỊCH THUẬT&lt;/span&gt;" style="rounded=1;whiteSpace=wrap;html=1;fillColor=#ffff88;strokeColor=#36393d;strokeWidth=4;fontStyle=1;fontSize=15;" vertex="1" parent="1">
          <mxGeometry x="842.5" y="770" width="130" height="50" as="geometry" />
        </mxCell>
        <mxCell id="SDv6OV_HzmU0nE14EEoZ-26" value="&lt;b&gt;PHÒNG&lt;br&gt;HỖ TRỢ PHÁP LÝ&lt;/b&gt;" style="rounded=1;whiteSpace=wrap;html=1;fillColor=#ffff88;strokeColor=#36393d;strokeWidth=4;fontSize=15;" vertex="1" parent="1">
          <mxGeometry x="992.5" y="770" width="130" height="50" as="geometry" />
        </mxCell>
        <mxCell id="SDv6OV_HzmU0nE14EEoZ-29" value="" style="endArrow=classic;html=1;rounded=0;exitX=0.5;exitY=1;exitDx=0;exitDy=0;entryX=0.5;entryY=0;entryDx=0;entryDy=0;fontStyle=1;strokeWidth=4;fontSize=15;" edge="1" parent="1" source="SDv6OV_HzmU0nE14EEoZ-2" target="SDv6OV_HzmU0nE14EEoZ-3">
          <mxGeometry width="50" height="50" relative="1" as="geometry">
            <mxPoint x="480" y="140" as="sourcePoint" />
            <mxPoint x="530" y="90" as="targetPoint" />
          </mxGeometry>
        </mxCell>
        <mxCell id="SDv6OV_HzmU0nE14EEoZ-30" value="" style="endArrow=classic;html=1;rounded=0;exitX=0.5;exitY=1;exitDx=0;exitDy=0;entryX=0.5;entryY=0;entryDx=0;entryDy=0;strokeWidth=4;fontSize=15;" edge="1" parent="1" source="SDv6OV_HzmU0nE14EEoZ-3" target="SDv6OV_HzmU0nE14EEoZ-22">
          <mxGeometry width="50" height="50" relative="1" as="geometry">
            <mxPoint x="437" y="400" as="sourcePoint" />
            <mxPoint x="437" y="450" as="targetPoint" />
          </mxGeometry>
        </mxCell>
        <mxCell id="SDv6OV_HzmU0nE14EEoZ-32" value="" style="endArrow=classic;startArrow=classic;html=1;rounded=0;exitX=1;exitY=0.5;exitDx=0;exitDy=0;entryX=0;entryY=0.5;entryDx=0;entryDy=0;fontStyle=1;strokeWidth=4;fontSize=15;" edge="1" parent="1" source="SDv6OV_HzmU0nE14EEoZ-4" target="SDv6OV_HzmU0nE14EEoZ-5">
          <mxGeometry width="50" height="50" relative="1" as="geometry">
            <mxPoint x="480" y="520" as="sourcePoint" />
            <mxPoint x="530" y="470" as="targetPoint" />
          </mxGeometry>
        </mxCell>
        <mxCell id="SDv6OV_HzmU0nE14EEoZ-39" value="" style="endArrow=classic;startArrow=classic;html=1;rounded=0;exitX=0.5;exitY=0;exitDx=0;exitDy=0;entryX=0.5;entryY=0;entryDx=0;entryDy=0;fontStyle=1;strokeWidth=4;fontSize=15;" edge="1" parent="1" source="SDv6OV_HzmU0nE14EEoZ-6" target="SDv6OV_HzmU0nE14EEoZ-13">
          <mxGeometry width="50" height="50" relative="1" as="geometry">
            <mxPoint x="480" y="520" as="sourcePoint" />
            <mxPoint x="530" y="470" as="targetPoint" />
            <Array as="points">
              <mxPoint x="-175" y="520" />
              <mxPoint x="1055" y="520" />
            </Array>
          </mxGeometry>
        </mxCell>
        <mxCell id="SDv6OV_HzmU0nE14EEoZ-40" value="" style="endArrow=classic;html=1;rounded=0;entryX=0.536;entryY=-0.004;entryDx=0;entryDy=0;entryPerimeter=0;fontStyle=1;strokeWidth=4;fontSize=15;" edge="1" parent="1" target="SDv6OV_HzmU0nE14EEoZ-7">
          <mxGeometry width="50" height="50" relative="1" as="geometry">
            <mxPoint y="520" as="sourcePoint" />
            <mxPoint x="370" y="480" as="targetPoint" />
          </mxGeometry>
        </mxCell>
        <mxCell id="SDv6OV_HzmU0nE14EEoZ-41" value="" style="endArrow=classic;html=1;rounded=0;entryX=0.536;entryY=-0.004;entryDx=0;entryDy=0;entryPerimeter=0;fontStyle=1;strokeWidth=4;fontSize=15;" edge="1" parent="1">
          <mxGeometry width="50" height="50" relative="1" as="geometry">
            <mxPoint x="160" y="520" as="sourcePoint" />
            <mxPoint x="160" y="570" as="targetPoint" />
          </mxGeometry>
        </mxCell>
        <mxCell id="SDv6OV_HzmU0nE14EEoZ-42" value="" style="endArrow=classic;html=1;rounded=0;entryX=0.536;entryY=-0.004;entryDx=0;entryDy=0;entryPerimeter=0;fontStyle=1;strokeWidth=4;fontSize=15;" edge="1" parent="1">
          <mxGeometry width="50" height="50" relative="1" as="geometry">
            <mxPoint x="329.52" y="520" as="sourcePoint" />
            <mxPoint x="329.52" y="570" as="targetPoint" />
          </mxGeometry>
        </mxCell>
        <mxCell id="SDv6OV_HzmU0nE14EEoZ-43" value="" style="endArrow=classic;html=1;rounded=0;entryX=0.536;entryY=-0.004;entryDx=0;entryDy=0;entryPerimeter=0;fontStyle=1;strokeWidth=4;fontSize=15;" edge="1" parent="1">
          <mxGeometry width="50" height="50" relative="1" as="geometry">
            <mxPoint x="560" y="520" as="sourcePoint" />
            <mxPoint x="560" y="570" as="targetPoint" />
          </mxGeometry>
        </mxCell>
        <mxCell id="SDv6OV_HzmU0nE14EEoZ-44" value="" style="endArrow=classic;html=1;rounded=0;entryX=0.536;entryY=-0.004;entryDx=0;entryDy=0;entryPerimeter=0;fontStyle=1;strokeWidth=4;fontSize=15;" edge="1" parent="1">
          <mxGeometry width="50" height="50" relative="1" as="geometry">
            <mxPoint x="720" y="520" as="sourcePoint" />
            <mxPoint x="720" y="570" as="targetPoint" />
          </mxGeometry>
        </mxCell>
        <mxCell id="SDv6OV_HzmU0nE14EEoZ-45" value="" style="endArrow=classic;html=1;rounded=0;entryX=0.536;entryY=-0.004;entryDx=0;entryDy=0;entryPerimeter=0;fontStyle=1;strokeWidth=4;fontSize=15;" edge="1" parent="1">
          <mxGeometry width="50" height="50" relative="1" as="geometry">
            <mxPoint x="884.81" y="520" as="sourcePoint" />
            <mxPoint x="884.81" y="570" as="targetPoint" />
          </mxGeometry>
        </mxCell>
        <mxCell id="SDv6OV_HzmU0nE14EEoZ-46" value="" style="endArrow=classic;startArrow=classic;html=1;rounded=0;exitX=0.5;exitY=0;exitDx=0;exitDy=0;entryX=0.5;entryY=0;entryDx=0;entryDy=0;strokeWidth=4;fontSize=15;" edge="1" parent="1" source="SDv6OV_HzmU0nE14EEoZ-18">
          <mxGeometry width="50" height="50" relative="1" as="geometry">
            <mxPoint x="-180" y="770" as="sourcePoint" />
            <mxPoint x="1050" y="770" as="targetPoint" />
            <Array as="points">
              <mxPoint x="-183" y="720" />
              <mxPoint x="1050" y="720" />
            </Array>
          </mxGeometry>
        </mxCell>
        <mxCell id="SDv6OV_HzmU0nE14EEoZ-47" value="" style="endArrow=classic;html=1;rounded=0;entryX=0.536;entryY=-0.004;entryDx=0;entryDy=0;entryPerimeter=0;strokeWidth=4;fontSize=15;" edge="1" parent="1">
          <mxGeometry width="50" height="50" relative="1" as="geometry">
            <mxPoint x="-32.84" y="720" as="sourcePoint" />
            <mxPoint x="-32.84" y="770" as="targetPoint" />
          </mxGeometry>
        </mxCell>
        <mxCell id="SDv6OV_HzmU0nE14EEoZ-48" value="" style="endArrow=classic;html=1;rounded=0;entryX=0.536;entryY=-0.004;entryDx=0;entryDy=0;entryPerimeter=0;strokeWidth=4;fontSize=15;" edge="1" parent="1">
          <mxGeometry width="50" height="50" relative="1" as="geometry">
            <mxPoint x="120" y="720" as="sourcePoint" />
            <mxPoint x="120" y="770" as="targetPoint" />
          </mxGeometry>
        </mxCell>
        <mxCell id="SDv6OV_HzmU0nE14EEoZ-49" value="" style="endArrow=classic;html=1;rounded=0;entryX=0.536;entryY=-0.004;entryDx=0;entryDy=0;entryPerimeter=0;strokeWidth=4;fontSize=15;" edge="1" parent="1">
          <mxGeometry width="50" height="50" relative="1" as="geometry">
            <mxPoint x="280" y="720" as="sourcePoint" />
            <mxPoint x="280" y="770" as="targetPoint" />
          </mxGeometry>
        </mxCell>
        <mxCell id="SDv6OV_HzmU0nE14EEoZ-50" value="" style="endArrow=classic;html=1;rounded=0;entryX=0.536;entryY=-0.004;entryDx=0;entryDy=0;entryPerimeter=0;strokeWidth=4;fontSize=15;" edge="1" parent="1">
          <mxGeometry width="50" height="50" relative="1" as="geometry">
            <mxPoint x="597.16" y="720" as="sourcePoint" />
            <mxPoint x="597.16" y="770" as="targetPoint" />
          </mxGeometry>
        </mxCell>
        <mxCell id="SDv6OV_HzmU0nE14EEoZ-51" value="" style="endArrow=classic;html=1;rounded=0;entryX=0.536;entryY=-0.004;entryDx=0;entryDy=0;entryPerimeter=0;strokeWidth=4;fontSize=15;" edge="1" parent="1">
          <mxGeometry width="50" height="50" relative="1" as="geometry">
            <mxPoint x="757.16" y="720" as="sourcePoint" />
            <mxPoint x="757.16" y="770" as="targetPoint" />
          </mxGeometry>
        </mxCell>
        <mxCell id="SDv6OV_HzmU0nE14EEoZ-52" value="" style="endArrow=classic;html=1;rounded=0;entryX=0.536;entryY=-0.004;entryDx=0;entryDy=0;entryPerimeter=0;strokeWidth=4;fontSize=15;" edge="1" parent="1">
          <mxGeometry width="50" height="50" relative="1" as="geometry">
            <mxPoint x="920" y="720" as="sourcePoint" />
            <mxPoint x="920" y="770" as="targetPoint" />
          </mxGeometry>
        </mxCell>
      </root>
    </mxGraphModel>
  </diagram>
</mxfile>
